<?xml version="1.0" encoding="UTF-8" standalone="no"?>
<!DOCTYPE svg PUBLIC "-//W3C//DTD SVG 1.1//EN" "http://www.w3.org/Graphics/SVG/1.1/DTD/svg11.dtd">
<!-- Created with Vectornator (http://vectornator.io/) -->
<svg height="100%" stroke-miterlimit="10" style="fill-rule:nonzero;clip-rule:evenodd;stroke-linecap:round;stroke-linejoin:round;" version="1.1" viewBox="0 0 3370.82 2384.24" width="100%" xml:space="preserve" xmlns="http://www.w3.org/2000/svg" xmlns:xlink="http://www.w3.org/1999/xlink">
<defs/>
<g id="Layer-1">
<g opacity="1">
<g opacity="1">
<path d="M1244.15 846.279L1327.85 846.127" fill="none" opacity="1" stroke="#0dfe94" stroke-linecap="butt" stroke-linejoin="round" stroke-width="10"/>
<path d="M1249.05 841.266L1249.22 1120.9" fill="none" opacity="1" stroke="#0dfe94" stroke-linecap="butt" stroke-linejoin="round" stroke-width="10"/>
<path d="M1242 1125.66" fill="none" opacity="1" stroke="#0dfe94" stroke-linecap="butt" stroke-linejoin="round" stroke-width="10"/>
<path d="M1249.21 1120.25C1249.21 1120.25 1249.1 1123.45 1249.6 1130.77C1251.62 1160.17 1267.1 1199.73 1306.18 1233.92C1327.35 1252.44 1356.88 1271.04 1397.97 1275.14C1401.94 1275.54 1405.96 1276.15 1410.08 1276.49" fill="none" opacity="1" stroke="#0dfe94" stroke-linecap="butt" stroke-linejoin="round" stroke-width="10"/>
<path d="M1419.52 1313.72L1419.52 1313.47" fill="none" opacity="1" stroke="#0dfe94" stroke-linecap="butt" stroke-linejoin="round" stroke-width="10"/>
<path d="M2041.42 1442.05L2042.78 1535.91" fill="none" opacity="1" stroke="#0dfe94" stroke-linecap="butt" stroke-linejoin="round" stroke-width="10"/>
<path d="M1407.74 1276.19L1857.22 1277.9" fill="none" opacity="1" stroke="#0dfe94" stroke-linecap="butt" stroke-linejoin="round" stroke-width="10"/>
<path d="M1755.15 1211.96L1755.95 1211.55" fill="none" opacity="1" stroke="#0dfe94" stroke-linecap="butt" stroke-linejoin="round" stroke-width="10"/>
<path d="M1851.36 1278.14C1851.19 1277.81 2034.27 1265.15 2041.88 1451.38" fill="none" opacity="1" stroke="#0dfe94" stroke-linecap="butt" stroke-linejoin="round" stroke-width="10"/>
</g>
<g opacity="1">
<path d="M1304.45 845.841C1304.45 832.468 1315.3 821.626 1328.67 821.626C1342.04 821.626 1352.88 832.468 1352.88 845.841C1352.88 859.215 1342.04 870.056 1328.67 870.056C1315.3 870.056 1304.45 859.215 1304.45 845.841Z" fill="#0c4333" fill-rule="nonzero" opacity="1" stroke="#000000" stroke-linecap="butt" stroke-linejoin="round" stroke-width="0.1"/>
<path d="M1318.52 845.841C1318.52 840.233 1323.06 835.687 1328.67 835.687C1334.28 835.687 1338.82 840.233 1338.82 845.841C1338.82 851.449 1334.28 855.995 1328.67 855.995C1323.06 855.995 1318.52 851.449 1318.52 845.841Z" fill="#e2e2e2" fill-rule="nonzero" opacity="1" stroke="#ffffff" stroke-linecap="butt" stroke-linejoin="round" stroke-width="0.1"/>
</g>
<g opacity="1">
<path d="M2018.27 1547.88C2018.27 1534.5 2029.11 1523.66 2042.49 1523.66C2055.86 1523.66 2066.7 1534.5 2066.7 1547.88C2066.7 1561.25 2055.86 1572.09 2042.49 1572.09C2029.11 1572.09 2018.27 1561.25 2018.27 1547.88Z" fill="#0c4333" fill-rule="nonzero" opacity="1" stroke="#000000" stroke-linecap="butt" stroke-linejoin="round" stroke-width="0.1"/>
<path d="M2032.33 1547.88C2032.33 1542.27 2036.88 1537.72 2042.49 1537.72C2048.09 1537.72 2052.64 1542.27 2052.64 1547.88C2052.64 1553.49 2048.09 1558.03 2042.49 1558.03C2036.88 1558.03 2032.33 1553.49 2032.33 1547.88Z" fill="#e2e2e2" fill-rule="nonzero" opacity="1" stroke="#ffffff" stroke-linecap="butt" stroke-linejoin="round" stroke-width="0.1"/>
</g>
</g>
</g>
</svg>
