<svg stroke-miterlimit="10" style="fill-rule:nonzero;clip-rule:evenodd;stroke-linecap:round;stroke-linejoin:round;" version="1.1" xml:space="preserve" xmlns="http://www.w3.org/2000/svg" xmlns:xlink="http://www.w3.org/1999/xlink" viewBox="1261.25 636.3 1660.73 1443.6"><defs><radialGradient cx="1708.09" cy="1116" gradientTransform="matrix(0.108869 0 0 0.108869 2694.3 1916.68)" gradientUnits="userSpaceOnUse" id="RadialGradient" r="381.85"><stop offset="0.0118804" stop-color="#c7ffe3"></stop><stop offset="1" stop-color="#42a876"></stop></radialGradient><radialGradient cx="1708.09" cy="1116" gradientTransform="matrix(0.108869 0 0 0.108869 1366.89 556.524)" gradientUnits="userSpaceOnUse" id="RadialGradient_2" r="381.85"><stop offset="0.0118804" stop-color="#c7ffe3"></stop><stop offset="1" stop-color="#42a876"></stop></radialGradient></defs><g id="Layer-1"><g opacity="1"><path d="M1274.65 679.095L1551.86 679.095" fill="none" opacity="1" stroke="#00f74c" stroke-linecap="butt" stroke-linejoin="round" stroke-width="11.1"></path><path d="M1276.55 677.97L1276.55 1177.76" fill="none" opacity="1" stroke="#00f74c" stroke-linecap="butt" stroke-linejoin="round" stroke-width="11.1"></path><path d="M1276.48 1177.42C1276.48 1177.42 1276.51 1549.12 1667.65 1549.12" fill="none" opacity="1" stroke="#00f74c" stroke-linecap="butt" stroke-linejoin="round" stroke-width="11.1"></path><path d="M1664.89 1548.42L2643.74 1548.42" fill="none" opacity="1" stroke="#00f74c" stroke-linecap="butt" stroke-linejoin="round" stroke-width="11.1"></path><path d="M2880.21 1771.12L2880.21 2038.67" fill="none" opacity="1" stroke="#00f74c" stroke-linecap="butt" stroke-linejoin="round" stroke-width="11.1"></path><g opacity="1"><path d="M2838.69 2038.18C2838.69 2015.22 2857.3 1996.6 2880.26 1996.6C2903.22 1996.6 2921.83 2015.22 2921.83 2038.18C2921.83 2061.14 2903.22 2079.75 2880.26 2079.75C2857.3 2079.75 2838.69 2061.14 2838.69 2038.18Z" fill="url(#RadialGradient)" fill-rule="nonzero" opacity="1" stroke="#ffffff" stroke-linecap="butt" stroke-linejoin="round" stroke-width="0.1"></path><path d="M2863.18 2038.18C2863.18 2028.74 2870.83 2021.1 2880.26 2021.1C2889.69 2021.1 2897.34 2028.74 2897.34 2038.18C2897.34 2047.61 2889.69 2055.25 2880.26 2055.25C2870.83 2055.25 2863.18 2047.61 2863.18 2038.18Z" fill="#ffffff" fill-rule="nonzero" opacity="1" stroke="#ffffff" stroke-linecap="butt" stroke-linejoin="round" stroke-width="0.1"></path></g><g opacity="1"><path d="M1511.28 678.022C1511.28 655.062 1529.89 636.45 1552.85 636.45C1575.81 636.45 1594.42 655.062 1594.42 678.022C1594.42 700.981 1575.81 719.593 1552.85 719.593C1529.89 719.593 1511.28 700.981 1511.28 678.022Z" fill="url(#RadialGradient_2)" fill-rule="nonzero" opacity="1" stroke="#ffffff" stroke-linecap="butt" stroke-linejoin="round" stroke-width="0.1"></path><path d="M1535.77 678.022C1535.77 668.591 1543.42 660.945 1552.85 660.945C1562.28 660.945 1569.92 668.591 1569.92 678.022C1569.92 687.453 1562.28 695.098 1552.85 695.098C1543.42 695.098 1535.77 687.453 1535.77 678.022Z" fill="#ffffff" fill-rule="nonzero" opacity="1" stroke="#ffffff" stroke-linecap="butt" stroke-linejoin="round" stroke-width="0.1"></path></g><path d="M2639.05 1549.37C2639.05 1549.37 2886.07 1515.4 2879.94 1781.11" fill="none" opacity="1" stroke="#00f74c" stroke-linecap="butt" stroke-linejoin="round" stroke-width="11.1"></path><g opacity="1"><path d="M1979.59 1515.56L1929.32 1548.59" fill="none" opacity="1" stroke="#ffffff" stroke-linecap="round" stroke-linejoin="round" stroke-width="11.1"></path><path d="M1979.73 1582.14L1955.97 1566.54L1929.46 1549.12" fill="none" opacity="1" stroke="#ffffff" stroke-linecap="round" stroke-linejoin="round" stroke-width="11.1"></path></g><g opacity="1"><path d="M2038.37 1581.54L2088.64 1548.51" fill="none" opacity="1" stroke="#ffffff" stroke-linecap="round" stroke-linejoin="round" stroke-width="11.1"></path><path d="M2038.23 1514.96L2061.98 1530.57L2088.5 1547.99" fill="none" opacity="1" stroke="#ffffff" stroke-linecap="round" stroke-linejoin="round" stroke-width="11.1"></path></g><path d="M1992.88 1585.49L2025.22 1511.62" fill="none" opacity="1" stroke="#ffffff" stroke-linecap="round" stroke-linejoin="round" stroke-width="11.1"></path></g></g></svg>