<?xml version="1.0" encoding="UTF-8" standalone="no"?>
<!DOCTYPE svg PUBLIC "-//W3C//DTD SVG 1.1//EN" "http://www.w3.org/Graphics/SVG/1.1/DTD/svg11.dtd">
<!-- Created with Vectornator (http://vectornator.io/) -->
<svg height="100%" stroke-miterlimit="10" style="fill-rule:nonzero;clip-rule:evenodd;stroke-linecap:round;stroke-linejoin:round;" version="1.1" viewBox="0 0 3370.82 2384.24" width="100%" xml:space="preserve" xmlns="http://www.w3.org/2000/svg" xmlns:vectornator="http://vectornator.io" xmlns:xlink="http://www.w3.org/1999/xlink">
<defs/>
<g id="Layer-1" vectornator:layerName="Layer 1">
<g opacity="1">
<g opacity="1">
<path d="M1726.52 681.044C1726.52 662.671 1741.42 647.777 1759.79 647.777C1778.16 647.777 1793.06 662.671 1793.06 681.044C1793.06 699.416 1778.16 714.31 1759.79 714.31C1741.42 714.31 1726.52 699.416 1726.52 681.044Z" fill="#386e53" fill-rule="nonzero" opacity="1" stroke="#ffffff" stroke-linecap="butt" stroke-linejoin="round" stroke-width="10"/>
<path d="M1743.03 681.044C1743.03 671.785 1750.53 664.279 1759.79 664.279C1769.05 664.279 1776.55 671.785 1776.55 681.044C1776.55 690.302 1769.05 697.808 1759.79 697.808C1750.53 697.808 1743.03 690.302 1743.03 681.044Z" fill="#ffffff" fill-rule="nonzero" opacity="1" stroke="#ffffff" stroke-linecap="butt" stroke-linejoin="round" stroke-width="0.1"/>
</g>
<path d="M1610.18 821.046C1610.18 820.971 1610.27 820.909 1610.39 820.909C1610.5 820.909 1610.59 820.971 1610.59 821.046C1610.59 821.122 1610.5 821.183 1610.39 821.183C1610.27 821.183 1610.18 821.122 1610.18 821.046Z" fill="#089729" fill-rule="nonzero" opacity="1" stroke="#089729" stroke-linecap="butt" stroke-linejoin="round" stroke-width="10"/>
<path d="M1491.68 681.111L1742.36 680.105" fill="none" opacity="1" stroke="#02f74c" stroke-linecap="butt" stroke-linejoin="round" stroke-width="5"/>
<path d="M1493.28 680.121L1493.18 1026.38C1493.18 1026.38 1476.37 1193.92 1639.58 1197.1" fill="none" opacity="1" stroke="#02f74c" stroke-linecap="butt" stroke-linejoin="round" stroke-width="5"/>
<path d="M1638.53 1198.04L2430.29 1196.86" fill="none" opacity="1" stroke="#02f74c" stroke-linecap="butt" stroke-linejoin="round" stroke-width="5"/>
<g opacity="1">
<path d="M2537.95 1731.4C2537.95 1713.03 2552.84 1698.13 2571.21 1698.13C2589.59 1698.13 2604.48 1713.03 2604.48 1731.4C2604.48 1749.77 2589.59 1764.67 2571.21 1764.67C2552.84 1764.67 2537.95 1749.77 2537.95 1731.4Z" fill="#386e53" fill-rule="nonzero" opacity="1" stroke="#ffffff" stroke-linecap="butt" stroke-linejoin="round" stroke-width="10"/>
<path d="M2554.45 1731.4C2554.45 1722.14 2561.95 1714.63 2571.21 1714.63C2580.47 1714.63 2587.98 1722.14 2587.98 1731.4C2587.98 1740.66 2580.47 1748.16 2571.21 1748.16C2561.95 1748.16 2554.45 1740.66 2554.45 1731.4Z" fill="#ffffff" fill-rule="nonzero" opacity="1" stroke="#ffffff" stroke-linecap="butt" stroke-linejoin="round" stroke-width="0.1"/>
</g>
<path d="M2571.4 1713.36L2571.51 1367.1C2571.51 1367.1 2588.31 1199.56 2425.1 1196.38" fill="none" opacity="1" stroke="#02f74c" stroke-linecap="butt" stroke-linejoin="round" stroke-width="5"/>
<g opacity="1">
<g opacity="1">
<path d="M2015.73 1166.44L1959.97 1197.83" fill="none" opacity="1" stroke="#ffffff" stroke-linecap="round" stroke-linejoin="round" stroke-width="10"/>
<path d="M1960.21 1192.41C1960.21 1192.41 1960.22 1192.4 1960.22 1192.4C1960.23 1192.4 1960.23 1192.41 1960.23 1192.41C1960.23 1192.41 1960.23 1192.41 1960.22 1192.41C1960.22 1192.41 1960.21 1192.41 1960.21 1192.41Z" fill="#101010" fill-rule="nonzero" opacity="1" stroke="#ffffff" stroke-linecap="butt" stroke-linejoin="round" stroke-width="10"/>
<path d="M1960.07 1198L2015.84 1229.39" fill="none" opacity="1" stroke="#ffffff" stroke-linecap="round" stroke-linejoin="round" stroke-width="10"/>
</g>
<g opacity="1">
<path d="M2073.84 1229.36L2129.6 1197.97" fill="none" opacity="1" stroke="#ffffff" stroke-linecap="round" stroke-linejoin="round" stroke-width="10"/>
<path d="M2129.36 1203.39C2129.36 1203.39 2129.36 1203.39 2129.35 1203.39C2129.35 1203.39 2129.34 1203.39 2129.34 1203.39C2129.34 1203.39 2129.35 1203.39 2129.35 1203.39C2129.36 1203.39 2129.36 1203.39 2129.36 1203.39Z" fill="#101010" fill-rule="nonzero" opacity="1" stroke="#ffffff" stroke-linecap="butt" stroke-linejoin="round" stroke-width="10"/>
<path d="M2129.5 1197.8L2073.73 1166.41" fill="none" opacity="1" stroke="#ffffff" stroke-linecap="round" stroke-linejoin="round" stroke-width="10"/>
</g>
<path d="M2060.31 1161.73L2029.73 1233.62" fill="none" opacity="1" stroke="#ffffff" stroke-linecap="round" stroke-linejoin="round" stroke-width="10"/>
<path d="M2029.26 1234.07L2059.84 1162.18" fill="none" opacity="1" stroke="#ffffff" stroke-linecap="round" stroke-linejoin="round" stroke-width="10"/>
</g>
</g>
</g>
</svg>
