<svg stroke-miterlimit="10" style="fill-rule:nonzero;clip-rule:evenodd;stroke-linecap:round;stroke-linejoin:round;" version="1.1" xml:space="preserve" xmlns="http://www.w3.org/2000/svg" xmlns:xlink="http://www.w3.org/1999/xlink" viewBox="1132.77 707.2 470.35 468.75"><defs></defs><g id="Layer-1"><g opacity="1"><path d="M1341.69 1141.98C1341.38 1141.27 1330.06 1115.8 1304.1 1085.46C1283.79 1061.74 1271.75 1050.72 1254.23 1033.3C1231 1010.22 1205.05 990.041 1180.39 975.781C1163.5 966.017 1149.47 958.644 1135.67 953.812C1135.04 953.592 1135.8 953.861 1135.19 953.648C1135.92 953.767 1224.72 968.247 1305.29 938.063C1330.86 928.484 1356.24 918.133 1377.38 898.097C1377.38 898.097 1325.99 973.614 1257.69 985.83C1257.69 985.83 1278.11 1008.44 1297.35 1040.08C1317.55 1073.3 1340.8 1115.18 1341.69 1141.98Z" fill="#ffffff" fill-rule="nonzero" opacity="1" stroke="#00ff4e" stroke-linecap="butt" stroke-linejoin="round" stroke-width="2"></path><path d="M1487.08 951.911C1372.22 1042.86 1371.98 1169.41 1372 1173.51C1371.2 1169.36 1347.85 1050.24 1290.09 976.575L1305.84 967.068C1306.24 967.46 1363.2 1023.6 1369.67 1045.67C1369.67 1045.67 1393.5 984.939 1486.64 950.995C1486.83 951.283 1486.84 951.666 1487.08 951.911Z" fill="#ffffff" fill-rule="nonzero" opacity="1" stroke="#00ff4e" stroke-linecap="butt" stroke-linejoin="round" stroke-width="2"></path><path d="M1394.18 742.02C1394.5 742.731 1405.81 768.2 1431.78 798.54C1452.08 822.265 1464.12 833.287 1481.65 850.704C1504.87 873.784 1530.83 893.962 1555.49 908.222C1572.38 917.986 1586.4 925.359 1600.2 930.19C1600.83 930.41 1600.07 930.141 1600.68 930.355C1599.96 930.236 1511.16 915.756 1430.59 945.94C1405.02 955.519 1379.64 965.87 1358.5 985.906C1358.5 985.906 1409.89 910.389 1478.18 898.173C1478.18 898.173 1457.76 875.563 1438.53 843.922C1418.33 810.701 1395.07 768.827 1394.18 742.02Z" fill="#ffffff" fill-rule="nonzero" opacity="1" stroke="#00ff4e" stroke-linecap="butt" stroke-linejoin="round" stroke-width="2"></path><path d="M1244.5 931.223C1359.35 840.276 1359.6 713.725 1359.57 709.62C1360.38 713.771 1383.72 832.895 1441.48 906.559L1425.73 916.066C1425.33 915.675 1368.37 859.537 1361.9 837.462C1361.9 837.462 1338.08 898.196 1244.93 932.139C1244.74 931.851 1244.74 931.469 1244.5 931.223Z" fill="#ffffff" fill-rule="nonzero" opacity="1" stroke="#00ff4e" stroke-linecap="butt" stroke-linejoin="round" stroke-width="2"></path></g></g></svg>